/* XPM */
static char *result[] = {
/* columns rows colors chars-per-pixel */
"50 50 28 1 ",
"  c #554F5A",
". c #56505B",
"X c #5B515B",
"o c #64535C",
"O c #6C565D",
"+ c #6D595E",
"@ c #71575D",
"# c #73595E",
"$ c #7B5A5E",
"% c #5D5762",
"& c #5E5862",
"* c #6F5B60",
"= c #745D60",
"- c #7A5E61",
"; c #776062",
": c #7B6263",
"> c #815C5F",
", c #825F61",
"< c #826565",
"1 c #886665",
"2 c #846967",
"3 c #896967",
"4 c #866A68",
"5 c #8B6D6A",
"6 c #8E716B",
"7 c #91736D",
"8 c #937770",
"9 c #947971",
/* pixels */
" .ooooooooo XoooooooXoooooooXXoooooooooooooXX oo X",
" XO@@@@@##@oo@######$@$@$@$OXo@$#########$@@OoOOX&",
" o@Oo-:::;;:=:::::$#oO-:;;;;:;-;:;;:#o#=::--:=#o.&",
".O>$O-45777899777775$@:46677899677763O#1467775,O.&",
" @>$O-4777777787766:O+:5677778867764-O#1578676,O.%",
".o$@O$<4444444444<:@o#-44444444423::#o#-44444<-o.&",
" .oO*=$##=#oO##=##;;@#====#@oO======#+==#===+oOO.X",
" X$1666665:O#56778767666664-O-5666887666675<$O$-o%",
" X$<676666:O#:7777867777665-O@47778877776762#O>-o&",
" X@<565<::#OO:5565666554<::#o$<5565556553:::#O$$X&",
" XOOO@=@#+#++*##+=#+OO@#=*#+O*+@=+=*+o+=*==#OOOo.&",
".O$@O:45666677656651+@<4566667665655,@-<455555,O.&",
".@>$o$4568688887676<OO:5677788867776:O+:568686,O.%",
".O$$O-5766666676642#o$,566666666662:#O$1666655,+.&",
" XOOOO@#=#;++#===*#+oO+=;===**;=;=*=@o++====#+Oo.%",
" .O:445442=O+<444565454444:=o$<442645225243:#o$#X&",
"..#1776664#O@<6668977776652@O$2677887777665:OO>>o%",
" X$4576424:O#<46777776764<4-O$<466777777544<#O$>o&",
" XO@#:;:=#@OO@@-;;:;;-:#;:##oO@$;;::=-;:;==##oOO.&",
".o$OO:2:22<2<<22<2<-+O:<2:2:222:22::-o#:<222<:$o.&",
".$$$O-26677799977765#+:46777899877764+#:4677761O.%",
".O>$+$5677777777754:O#<6777867778662#O#2677877-O.%",
".o@Oo$:::::2::::::;@oO#::<:::::2:::#@o+$::::::#o.%",
" Xo$::::::;oO::::::::;::;:;-o+;:::::::::::::#o#OX%",
" .$4677764:O$47779977777774-o-5777887777766<$O>>o%",
" X$1676655:O@:6777867776654-O$<777877766664<@O$$o%",
" .O:24<:;:#OO-444424442:;;:@o@-142244422::::#o$#.&",
" XOoo#;#=;;####;====oO-#;-===*=-===##o+;;;=;#+@oX&",
" @>#O:55676889766761@@<46776888767751O#2466775,O.%",
".#>$O#5577777876766:OO-5677677877666$O@:667776<O.%",
".O$#O-156466666552:$o$<465555665642:#o#1466564$o %",
" XOO++##=*+oO+=+=*=#OO+=**=*oO=*+;+=+O+#+=#+@o+o.%",
" .#<56666<:O#<556686666666:=O#2565776666655:#o$$o&",
" X#1766642#O#:7778867766544=O#17778877776542#O>>o&",
" .#1566444-O#>1566666665432$O$,466666766544<$O$$X&",
"  oO+=##=+@OO#O#+;#@++==#=+#oO#+#=##++###+#+OoOO.%",
" O$#O,24544666544644O@<4445556645464:O#2455552-O X",
" #>#O$45777769866664@O:4687778887686<O#:467767,O.%",
" @>$O,5777667667664#O$<567776666665:#O$2577776:O.%",
" XOOo##;;-;;;;;;;=##oo@==;=;;;;;;;=#OoO#=-==-#OX.&",
" .O-<<2<::-OO:2<44<42:222<;$o@<<2:23:2<3<22:#o$#X&",
"  $3677775:+$17679877777774-O-5778998777776:=O$>o%",
" .#<787544:O$:6777777876544=O$17779777775543#O>>o%",
"  o#:::=;;@oO$:::<::::::-=-@oO-::::::::::===@o@@.%",
" o#Oo-::::::::::;:;-OO-:;:::;:::::::#o#::::::-#X %",
".#>$O-25777889877771@O:5677789988776,@#:477765,@ %",
" O$$O-5877777776765;O@:5667777777762=@#2677766:+.%",
" o##O=:5:45:44444:;$o@::4444222122:;#o#::2233<-o.%",
" XOO@@@@@@OooO@@@@@@OO@@@@OOXO@@#@@@@O@@@@@@oXo@oo",
" XoOO@@OO@OooOOO@@@O@@O@O@OOXX@@@@@O@OO@O@@OOXO@+X"
};
