/* XPM */
static char *result[] = {
/* columns rows colors chars-per-pixel */
"50 50 75 1 ",
"  c #323443",
". c #393745",
"X c #3B3946",
"o c #373949",
"O c #3A3B4B",
"+ c #3C3F50",
"@ c #423E4A",
"# c #4A3F49",
"$ c #3F4255",
"% c #46414D",
"& c #4C444E",
"* c #56444C",
"= c #414255",
"- c #44475A",
"; c #46495D",
": c #4B4C5E",
"> c #554951",
", c #5B4C53",
"< c #554F5A",
"1 c #584F5A",
"2 c #51525E",
"3 c #5C505A",
"4 c #634749",
"5 c #6F4849",
"6 c #604D56",
"7 c #6C5756",
"8 c #64535B",
"9 c #6C555C",
"0 c #67585C",
"q c #6D595D",
"w c #785B56",
"e c #71565C",
"r c #735A5E",
"t c #7B5A5E",
"y c #7E615A",
"u c #4A4D62",
"i c #4E5167",
"p c #53566D",
"a c #565971",
"s c #5A5D76",
"d c #5C5F79",
"f c #6C5D60",
"g c #755E61",
"h c #7B5F60",
"j c #5D617B",
"k c #776061",
"l c #7C6263",
"z c #7F6966",
"x c #61657E",
"c c #805B5E",
"v c #815F60",
"b c #826564",
"n c #856967",
"m c #886A67",
"M c #876B68",
"N c #8B6D69",
"B c #8E716B",
"V c #91736D",
"C c #93786F",
"Z c #937870",
"A c #636782",
"S c #666A85",
"D c #686E84",
"F c #6A6E8B",
"G c #6D718D",
"H c #717989",
"J c #6F7490",
"K c #717691",
"L c #747A94",
"P c #787F97",
"I c #7C849B",
"U c #7F889D",
"Y c #80889D",
"T c #8691A4",
"R c #8A95A6",
/* pixels */
"<<18888888311888888888888888118888388888888811811<",
"<<8eeeeeeee889efeee9999eee9f6899gf9eeeeee9e998991<",
"<19e8rghllllkllkhhhg99ghhhhhhhhhghhgg99ghhghgge81<",
"<8tt9tnmNBBBVVZBVBBnh9hnmVVVVZZVVVVVvegvMNBVVNv91<",
"<8ct9tbNBBVBVVBBVVNhffhmVVVVVZVVVVNNh99vBBVVVNve<<",
"<8ee9elbnnnbnbnnnhhf99hvvnvnbbbbnvhgg6ghvbnnnvg8<<",
"<<89rggghhg99gghhghggggghggf99ggghhgggggggggf99911",
"<<9bmBNBNmle9vNBNBZBmBmBBBbh9gnVBBVVNmVmVBMbg9et8<",
"<<9bNVVNNNlg9hNVBZVBBZBBBNMh9gvBVNZVVVVVVNnze9tc9<",
"<<9hnmnbllg99gbmnNNnMNMzbhhf9ehnNnmNmNMmnllhe9te8:",
"<1899eggggg9fgggggggf9ryggggffgggghgf9fgggggr9e81<",
"<8et9ebnNNNNBBNNNNnbr9lbMNMNNBBNmNNnvfevnnNNNnh9<<",
"<8ct9ebNBVBVVVVVBVNbe9tnbbmBVVZVVVBNh9evmBVVVBb91<",
"<8te9tbNNNNNNBNNNnbh99tqt9gmNNNNNNnhg9evmNNNmnh9<<",
"<<899eggggggfggggggqq8,*wt9ffggggghff9ffggggg9981<",
"<<8tbnnnnng99hbmnNBnme&54,gg8evMnnNNnmMMMnnle9ee6<",
"<<9vNVVNNnh99vNVBBVZn023<>re9ebBVVVVVVVVNNmbe9tt8<",
"<19bNNNnnbhe9tbnBBBN82HHDp&99ecbNNNBBBBBmnbbg9tt8<",
"<<99gghhggg99eggghg0&O::;OO>89trgggghggkgggge89911",
"<8ee9ghbbnznnnnbbg>=O$=:u+o.%0bbznnbk99lznbbbhh91<",
"<8tt9enNBVVVVZVBn0:pdxAFFjio &zBVVVNne9bnBVVVNbe<<",
"<8tt9gbBBBBBBVVN0:xFFFGFGGj;O %kNBNng9evNBBBVNh81<",
"<19e0eglllllklh12xJLPLKGGGSp;O %9lgge89ghlllhge8<<",
"<18ellllllh90t8@aLIIYILFFGDja;o &glblllbllllg8ee1<",
"<<9bNBVVBNle9h1:SURRTLFGGGFSAa+ OyZBBVVBBBNnt9tc8<",
"<19lNVBNNnlge9%pGPTTUKGGGGGGGAu  8BBVVBBNNnne9th8<",
"<<8thzbhggg999@aFJIILLGGGGGGGFa$ >lbzzlzlhgge8ee3<",
"<1998tghghlkg9@aGGJGGJGGGGGGSSju >hkr9qgglghhge811",
"<8ct9rbnBBBBVz&pFFGGGGGGGGJFAsuO 6NNb9ebMNBBNNb9<<",
"<9tt9tnNBBVVVz@=sFFFGGGGGGGFAp$  ,Nmh9ehNBVVVNv91<",
"<1ee8thnnbnnnl&oudASGGGGGGJFdi+ o8hhf99hnnnnnbg81<",
"<18eqgggggg99g1o+iaAGGGJFAAji$o &fghgegggggg99903<",
"<<9hmBmBmmg99vv1OO-ASSSSAApuo oXqBBBNNNNNBmlg9tt81",
"<19bBBVmmnh99vmh,.o@udpuu++o  @7mVBCVVVVNNnle9tt8<",
"<18hbnnnbvhg9cvng#  +uu++    .,gnMMBmNmmnnzhe9et31",
"<189fgghgggf9fgggf#.        @,rggkkrg9fgggggg9981<",
"<8tt8tbnnNmmNNNNmmbf#..Ooo@1lNBNMMNmb9ebnmNmmnv9<<",
"<9tt9ebNVVVVVZZVVVBnf,9hhhzNVVZBVVBNb9elMBVVVBv9<<",
"<8et9tbmBNmBNNNNmmvg99hvNNNNBNNNNNnzt9ehmNNNNnh9<<",
"<<8e9efgggggfgghgggg99gfgghgrggggkrr909gggggg9981<",
"<<9hbnmnnbhf9vnnMMMMMMnMnnvg8gvnMMNMnnmnnnnlg9et8<",
"<19vBVVVVNvfevNVVVZVVVVZVVmh9gmVBBZZVVVVVVNbg9tt8<",
"<<9hmBNnnvh99vmNVBBBNBNNnnvg9evMNBBBBNVNNnzve9tt8<",
"<<6ffghgggg99fhhhghhgggggggf99ggkkhkhhghgggfe8e81<",
"<3ge9ghbbbbzbnzbvbzh99hhhvbbbznzzblbh9ehlnbnblg8<<",
"<8cg9evmBVBZVZZBVVBngfgMBVVVVZZVBVBBv99hmNBBBNv91<",
"<6tt9gnBBBBBBZBBVNMh99hMVVVVBVVVBBNng9gbNBZBBnvf<1",
"<,9e9fhlllllhllhhhg999ghhllhzhhhlhgg999ghllhhhg8<<",
"<<89e9eefe98899ege9e999e9e9968g9fgeee9eeeeee91898,",
"<<189899889618886989999988983188988889888988818981"
};
