/* XPM */
static char *result[] = {
/* columns rows colors chars-per-pixel */
"50 50 110 2 ",
"   c #323443",
".  c #3A3947",
"X  c #363949",
"o  c #3B3B4B",
"O  c #3C3F51",
"+  c #423E49",
"@  c #3E4153",
"#  c #44414C",
"$  c #4B444E",
"%  c #59494D",
"&  c #414355",
"*  c #494553",
"=  c #444659",
"-  c #474A5D",
";  c #484B5F",
":  c #504750",
">  c #554B53",
",  c #5B4D54",
"<  c #554F5A",
"1  c #5C5156",
"2  c #56505B",
"3  c #5B515B",
"4  c #645257",
"5  c #695656",
"6  c #64535C",
"7  c #6C565D",
"8  c #6D595E",
"9  c #71575D",
"0  c #73595E",
"q  c #7B5A5E",
"w  c #4A4D62",
"e  c #4E5166",
"r  c #505465",
"t  c #5D5762",
"y  c #5E5862",
"u  c #52556B",
"i  c #56596F",
"p  c #565A71",
"a  c #595D75",
"s  c #5C5F78",
"d  c #605B64",
"f  c #6F5B60",
"g  c #745D60",
"h  c #7A5E61",
"j  c #5E627B",
"k  c #776163",
"l  c #7B6263",
"z  c #73666D",
"x  c #7A666B",
"c  c #74686C",
"v  c #7D686C",
"b  c #61657E",
"n  c #835B57",
"m  c #815C5F",
"M  c #825F61",
"N  c #826565",
"B  c #886665",
"V  c #846967",
"C  c #896967",
"Z  c #866A68",
"A  c #8B6D69",
"S  c #8E716C",
"D  c #9B7363",
"F  c #91736D",
"G  c #876E72",
"H  c #857675",
"J  c #8E7371",
"K  c #85767B",
"L  c #88787D",
"P  c #937770",
"I  c #947971",
"U  c #997F79",
"Y  c #9B817B",
"T  c #A3897F",
"R  c #636681",
"E  c #656985",
"W  c #6A6E8A",
"Q  c #6D718E",
"!  c #727792",
"~  c #757B95",
"^  c #7B829A",
"/  c #8F8084",
"(  c #988589",
")  c #80899E",
"_  c #8C939F",
"`  c #A08782",
"'  c #A28B82",
"]  c #A68E8D",
"[  c #AE9C98",
"{  c #B1A39A",
"}  c #B9A69B",
"|  c #8A95A7",
" . c #8C97A8",
".. c #BFB2B0",
"X. c #C4B4A5",
"o. c #C9B2A1",
"O. c #C1B5B5",
"+. c #CBBFBE",
"@. c #C5C0C3",
"#. c #CDC4C1",
"$. c #CDC8CB",
"%. c #D0C8C9",
"&. c #DAD4C6",
"*. c #ECE3CC",
"=. c #F6F1D8",
"-. c #E7E4E4",
";. c #ECE9E8",
":. c #F1EFEF",
">. c #F4F4F4",
",. c white",
/* pixels */
"< 2 6 6 6 6 6 6 3 6 6 < 3 6 6 6 6 6 6 6 6 6 6 6 6 6 6 6 3 3 6 6 6 6 6 7 6 6 7 6 6 6 6 6 3 3 6 6 < t ",
"< 3 7 9 9 0 0 9 q q 9 6 6 9 0 q 0 0 0 0 0 0 9 0 0 9 9 f 3 7 9 9 0 g 9 0 9 9 0 0 9 9 9 7 7 3 f 7 3 t ",
"< 6 9 7 6 h h k k l k k k k k l l h h g 6 7 h h h h h h k h h h k l h h h 6 f h h h h h h h 7 6 < t ",
"2 7 m q 7 l Z A F F F F I I F F F F F C g f N Z S F P F P P P P A P P S B 7 9 N A F F F S S M 7 < t ",
"< 9 M q 7 h Z F F F F F F P F F F F A l f 9 h A S F F S P P P S F S S Z h 7 9 N A J F F F A M 7 < t ",
"< 6 q 0 7 q N C Z Z Z Z Z Z Z Z V N h g 6 9 M N Z Z Z V V V Z Z Z V N h 9 6 g M V Z Z V Z V h 6 < t ",
"< 3 6 7 g g g 0 g g g 6 7 g 0 0 g g g g g g g g g g g g 6 7 g g g g g g g f g g g g g g f 6 9 7 < t ",
"< 3 q B A A F S S C l 7 0 C F F F P P A S S S S S S Z h 6 M A S S S P P S S S F S F A V h 6 q m 6 t ",
"< 3 0 N F F F F S A k 7 0 l F F F P P F F P F S S S A g f 9 N F F F P P F F F F F S A V g 7 q M 6 t ",
"< 3 0 N Z A Z N l N h 7 0 l C A A A A Z A A C Z N M h g 7 g ] X.` A A A A A A C V N l h 9 7 q h 6 t ",
"< 3 6 7 7 g g g g f 0 7 8 8 8 g g g x L v f g g g g g g 7 / -.>.%.v g g g 7 f g g g g g 9 6 7 6 < t ",
"3 6 q q 7 h V A A A S S P S S S A P +.:.$.G N Z A A A A A [ +.O.#.U Z A M 7 g N Z A C S S C M 7 < t ",
"< 9 m q 6 g C A F F F F P P F F F ` ;.,.>.( g Z S P F S F U U P Y P F A M 7 9 l A S P S F F M 6 < t ",
"3 7 m 0 9 M C S S S S S S S S S A P O.-.@.G M C Z C S S S S S S S S Z l g 6 q V A S S S S C M f < t ",
"< 3 6 7 6 0 g g g g g f f 0 g g g g x K z f 6 4 5 , f f f f g g g g g g 7 6 7 g g g g g g 7 6 4 < t ",
"< < 7 M B Z Z Z Z V g 7 8 N C Z Z A A V A P 7 % D 5 h g 7 h M Z Z Z A A Z Z C Z Z Z Z l q 6 h 0 4 t ",
"< 3 0 V F F F S S Z 0 7 9 N F F S P P I o.*.o.n % g Z 0 5 0 Z F F F F I F F F F S S A l 9 6 m m 6 t ",
"< 3 q V S F S Z N B l 7 0 M C S F F F ' =.=.=.H @ 5 l h k Z B A F F F F F F F F C Z V V h 6 m m 6 t ",
"< < 6 q g h h k k k 0 7 7 9 0 0 k k h V ..*.&._ j * 1 0 { } q 8 k k k k h k k k k k g 0 7 6 9 7 < t ",
"3 6 q 7 7 l N V N N x V V N V N N N k 6 2 c y e - X : l ( T V N l V N N h 6 q l V l V V V M h 6 < t ",
"< 0 M q 5 h Z A F F F F I I P F F l 1 . X o @ - @   X $ g F I F F F F S A 8 0 l A S F F F F N 5 < t ",
"< 7 m q 5 l C F F F F F F F F F N < - a a R R Q b i @   . k S F F F A C g 5 0 N S F F F F A N 7 < t ",
"< 6 9 7 7 0 l l x l l x l x l g $ i E Q Q Q Q Q Q E e @   . 5 l N l k h 0 6 7 q l N l N N k q 3 < t ",
"< 3 6 q h l l l l l h 5 7 k 7 # p Q ! ~ ~ ~ Q Q Q Q j ; @   . > k k l l k k l l k l k k 0 6 7 9 < t ",
"< 3 q B F F F F F Z l 7 0 C , - E ^ ^ ) ^ ^ Q Q Q Q j j e X   # N P I P F F F F F P A N 0 7 q M 7 t ",
"< < 0 V F F F A A C k 9 q 5 # a ^ |  . .^ Q Q Q Q Q E E j -     6 S P F F F P S A A A V 9 7 m m 6 t ",
"< < 7 h V V V l k k 0 8 7 : = W ! )  .) ^ ! Q Q Q Q Q Q Q i @   # l Z Z Z Z Z Z N k h h 9 7 h 9 3 t ",
"< 3 7 7 6 g g g k g k 0 0 $ = Q Q ^ ) ^ ^ ! Q Q Q Q Q Q Q j =   o 5 k 0 0 4 8 0 g h g g f f 9 6 < t ",
"< 9 m 0 7 h C A S F S P P 1 = W Q Q ! Q Q Q Q Q Q Q Q Q Q Q b @ + C S S M 7 0 V A A F F S S M 7 < t ",
"3 0 m q 7 q A A S S F F S 1 = Q Q Q Q Q Q Q Q Q Q Q Q E b j u X o C S C h 7 9 l A J F F F F M 9 < t ",
"< 5 q 0 7 h V A S S A S S > @ E W Q Q Q Q Q Q Q Q Q Q E j r @   o N V h g 6 h M Z A A A Z Z h 6 < t ",
"< 3 7 7 7 f 0 g f f 8 8 5 $ X - E Q Q Q Q Q Q Q Q Q Q Q j -     o 7 g g g 7 7 f g g g g 7 7 7 7 < t ",
"< < f M S C S S S Z h 6 0 9 . O r j j Q Q Q Q Q Q Q Q E e &     1 S P S S S S S S S A l 0 7 q q 6 t ",
"< 3 h V F S S A Z Z h 7 0 h >   ; u s Q Q Q Q W E R a u & @   + l F P P F F F F A A Z l 0 8 q m 7 t ",
"3 3 9 B S S S Z Z N M 9 0 M 9 +   o i b E E R R a a e X     . , A S S S S S S S A Z V N g 7 m q 3 t ",
"< 3 6 6 7 f g g g f 9 6 6 9 7 4 .   X o p p w = & X X       : 8 0 f g 0 f 8 8 0 g 0 f 0 7 7 5 6 3 t ",
"< 6 m 9 7 M Z Z A Z Z A A S A Z k $   X @ @ & X X       X 8 Z A A Z C Z N 5 q C Z Z Z A Z B M 6 < t ",
"3 0 m 0 7 h Z A F F F P P P F F S g $                 # 5 S I S S P F F V 8 7 l Z F F F F F N 7 < t ",
"< 9 M 0 9 M C S F F F F F P F F F A h 4 + + + $ $ $ 6 V S S S S S S Z l 0 7 q N F F F F F A M 7 < t ",
"< 3 7 7 6 9 g g g h g g g k g h g g g 9 6 6 7 0 8 g 0 k k k k k k k k 0 8 6 7 0 g h g g h g 7 3 < t ",
"< < 7 h N V V N V l h 7 7 N N N N V V N V N V N V N h h 6 f N N V V N Z V V N V N V N l g 6 0 q 3 t ",
"< 3 q Z S F S F P Z h 7 g B F F P P P P F F F F F F V h f h C P S F I P A F F F F F S N g 7 q m 7 t ",
"< 3 9 N F F F A Z Z h 9 9 N S F P F F P F P F F A V N g 7 0 V F F F P F P F P F A A Z N 9 7 m m 6 t ",
"< < 6 h k l l h g h g 6 5 h k l l N h l l l l k h g h 9 6 9 h h l l N l l k l h k h g g 9 6 9 7 3 t ",
"< 6 9 7 6 h h k l l l k l l l l h l h g 6 f h h l h l l h l N h l k l l h 6 9 h l l l l l h 9 3 < t ",
"< 9 M q 7 h Z A F P F P I I P P F P P B f f h A S P P P P P I P P F F S M 9 0 N Z F F F F S N 5 < t ",
"3 7 q q 7 h C S F F F F F P F F P A C h 7 9 M A S F S F J F P P F S A A h 6 0 V A F F F F S M 9 < t ",
"< 4 0 9 7 h N V V V V V V V V V V l h g 6 9 h N V V V V Z Z B M V C l k 0 6 0 h V Z V V V N h 6 < t ",
"< 3 6 f 9 9 9 9 9 9 7 6 6 9 9 9 9 9 9 9 9 9 9 9 9 9 7 7 6 6 9 9 9 9 9 9 9 7 9 9 f 9 9 9 6 6 7 9 6 d ",
"< < 6 9 7 9 7 7 7 9 9 6 3 7 9 9 7 9 7 9 7 9 7 7 9 7 7 7 3 3 7 9 9 7 9 7 9 7 7 9 7 9 9 9 6 3 6 9 4 d "
};
