/* XPM */
static char *result[] = {
/* columns rows colors chars-per-pixel */
"50 50 84 1 ",
"  c #554F5A",
". c #56515B",
"X c #5C535C",
"o c #63545C",
"O c #6B565C",
"+ c #67585D",
"@ c #6B5A5F",
"# c #71575D",
"$ c #745A5E",
"% c #7D5A5E",
"& c #77605F",
"* c #7A615F",
"= c #5B5660",
"- c #5D5A64",
"; c #5D5D68",
": c #625C65",
"> c #6B5D61",
", c #635F69",
"< c #735E61",
"1 c #7C5D60",
"2 c #5F626D",
"3 c #6E6163",
"4 c #61636E",
"5 c #6A676F",
"6 c #756363",
"7 c #7C6463",
"8 c #796967",
"9 c #636670",
"0 c #656973",
"q c #6A6C75",
"w c #676F79",
"e c #6A6F79",
"r c #6B717A",
"t c #71767F",
"y c #815C5F",
"u c #836463",
"i c #836965",
"p c #8B6B64",
"a c #846C68",
"s c #8D6E6A",
"d c #916E65",
"f c #86726B",
"g c #8C726A",
"h c #8D796F",
"j c #967267",
"k c #9A7467",
"l c #92746B",
"z c #9B7769",
"x c #96796D",
"c c #9A7B6D",
"v c #927B70",
"b c #A27D6C",
"n c #9D8273",
"m c #A4806F",
"M c #A48573",
"N c #A98572",
"B c #A68876",
"V c #AC8A76",
"C c #A78C78",
"Z c #AD8D78",
"A c #B08F79",
"S c #AE907A",
"D c #B3947C",
"F c #B6987F",
"G c #6E7780",
"H c #737B83",
"J c #778087",
"K c #768088",
"L c #7A848B",
"P c #7E888E",
"I c #7F8990",
"U c #80898F",
"Y c #828C92",
"T c #869196",
"R c #889297",
"E c #8B969A",
"W c #8E999D",
"Q c #B79A80",
"! c #BCA386",
"~ c #BEA689",
"^ c #BFA88A",
"/ c #929EA1",
"( c #96A2A5",
") c #C1AB8C",
/* pixels */
" .XoooooooX  ==-==-=-=----:-4:--2X-X-X  ooooo oo  ",
" .O###$#%#:,qeeerrerrrrerttHtttrwrwrrw54+$#O+X#OX ",
" XO#o<11<:09,=:X=Xo-XX-X=.=--XX-XXXX--202@**11#o  ",
" oy%O1ia>0,><ppu+upppppp&X7pppppp&+ppi&:556jlsuO  ",
" oy%O#u>0;hBBZVc>MSZVVZVp3BSZVVNm**CZZMj@256jguO  ",
" X%%O%<406ZBaADl@CDDnhDDh3SDZfVSVi8DFnfBp-w:8u1O  ",
"  o#><=q;vDBxDAc>CDDncDDd3SDZxSDDi8DDVxSB345oo#oX ",
"  >ysp:e:nDDDQQc>CDDFFQDg3SDDDDDD8&DDDDFS&45oo%yo ",
"  #yl8405VQQDDQz>VFF~!FDd3SDDDDDDi8DDDDDAi:qoo%yO ",
"  >yu<547QZQDDDx@SF!))DDg3SDDFDFDi6DDDDFAsoe;o%%o ",
"  oOoo497AQZQDDx>CFDDDDDg3SDDFDDSi6DFDDDVdXw=o#o  ",
" o%%OO098ZQQDDAx>CDFDDDAg3SDDDDDZf8DDDDSNd:w:uuO  ",
" Oy%Oo94<QQVAANp@BSSADZVf3VDDSAVk**SSSVmkpoq:iuO  ",
" o%1Oo59X<81771:.>777**7+.&*777*&XX*7777*+.e:u7O  ",
"  oOoo44.=;;;;;;2222;;-2;22;-22;22-22;;22=.r:o+o  ",
"  o1u154=GHILLLIJPUYTTTULLLLLLLLLLLLLLLJH9.r-X%%o ",
"  Oug399-JPPPRRIUEW((//WIIIRIIITYYYYYYPPL0.r-o%yo ",
"  #ug&59-PYrGIIIUYRWWWRRIIIRITTIYIYYIP0HP0Xw+o%%o ",
"  o#&oq2;HJGJPIIYUURWRRIRIIIIIIIIITIYPHHJ2-wXXOO  ",
" o%$oo59-wrHJJLJLLLLLLLLLLLLLLLPLLLLLLJw00Xw4&%O  ",
" Oy%Oo5q.229929999220222999999994929029222.r4iu#  ",
" o%%O+q5....  ........................... .r4i*O  ",
"  O$+or9 X==oooX XooXXo+. XX+X==X. XXXoo.X.rX##o  ",
"  o%*@r5+ddnjkd*Xijjxzjj&+pjjjjjj$+gjzjjg*Xr2o#$o ",
"  #uj6q98SSSSASn>BAAAAZNg3VSAAAAm*8SAAAVbp:e:o%yO ",
"  O*g6q98FFFFDDj>VFDFDDDg3SFFDFDZi8SDDDZmpoe:o%yo ",
"  o%7O998FFFFFFj@CFDDDDDg3SDFFFDDi8DDDDDZd=e=o$#X ",
" XO#oo99fFFF^FDn>CDDDFDDg3SDF)FFD78SDDFDAdow;O#o  ",
" oy%Oo598DFFFFZn>CDDDFDDd3SFF)FFAi8DDDDDZdoq:iu#  ",
" Oy%Oo998DDFFFDj>CFDDDDDg3SFFFFFDi6DDFDFZdXr,iu#  ",
" X#%OO948DFDFFDn>CDDDFFDg3SDDDFFSi8DFDDDZd:t41%O  ",
"  o#>o998DDFFFSn>CDDDDDDg3SDDFFFDi8DDDDDAsoH:XOOX ",
"  Oys<098QQQAAQx@CDDDDDSp3SDDDDDDi6DDDDDVjXJ2o%%o ",
"  #us<598AAQQAAc3CDDDDDVp3SDDDDDSi8DDDDDmjXt4o%yO ",
"  oys>99<ZZAZVbs+nZZSZZm7>CSVZSNN83CZZSmkpXt+o%%o ",
"  o>oo59.><<$<<o.+&&66&&o.@6&&&&&o.>3&&&&o.r-oOo. ",
" O%%Oo99.;4444442242222222242224244442442-.r:7uO .",
" OyyOo54=rJLUPPPPPPPPPPPPPYTEEEEEPLPPPUUH0=q:iuO  ",
" o1%OO44;HPLPYYYYYYYYYITYTTE///(WTYYYULUIr=w:u7O  ",
"  oOoo54;LYqrIYYYYYYYYTIYUPTTEEWTPYYYLqtYG=q;oOo  ",
"  oyi@02-wGGKIYYIITIITIIYIYYYREYYYYYYLHHKw=w;o#%o ",
"  #ul605-0wGHKKKJJJJKKKJKKKKKKKKKKKKKHHGw0=w-oyyO ",
"  ous<94=;2222222222222222222222222222222;=w=o%%o ",
"  X#<+04      .=...........................w;oOOX ",
" o%#oo55.+++:++X.X++++++X.X+++++o..oo+@++X=q:1$o .",
" oy%Oo94@jzzjzzi+pzzkzkk*+dzzzzzz6+jzzzjdu=q:iuO  ",
" o%%OO928SDnfZZj@BDDnhDmi3SDVfVZBi8SDBgbkd:q:uu#  ",
" X##oo228VVBxNNp@nZSnxAVa@BSBxBcb66VZBlNbp=0=<<o..",
"  o##o.=X<<1666o.@66$6&6o.@&&6&&$X.$6&&6&o.=..O#O.",
"  Xooo              ..    .. .      . ..  . ..ooo."
};
