/* XPM */
static char *result[] = {
/* columns rows colors chars-per-pixel */
"50 50 179 2 ",
"   c #2F3242",
".  c #323443",
"X  c #3A3543",
"o  c #3C3946",
"O  c #3F3D49",
"+  c #423544",
"@  c #4C3545",
"#  c #443B47",
"$  c #4C3C46",
"%  c #433D49",
"&  c #483E4A",
"*  c #543546",
"=  c #563748",
"-  c #563948",
";  c #5A3D48",
":  c #623648",
">  c #6B3649",
",  c #633D4A",
"<  c #6F394A",
"1  c #75374A",
"2  c #78384B",
"3  c #47414B",
"4  c #4B444D",
"5  c #52454D",
"6  c #5C454A",
"7  c #5A4C4F",
"8  c #4E4651",
"9  c #4C4E5B",
"0  c #524750",
"q  c #554952",
"w  c #5B4D53",
"e  c #554F5A",
"r  c #5F5257",
"t  c #56505B",
"y  c #5B515B",
"u  c #634549",
"i  c #6A4649",
"p  c #7F424E",
"a  c #76494B",
"s  c #72514F",
"d  c #78504E",
"f  c #604E57",
"g  c #625356",
"h  c #6E5754",
"j  c #6E5855",
"k  c #64535B",
"l  c #6C565C",
"z  c #63585C",
"x  c #6D595E",
"c  c #765D57",
"v  c #71575D",
"b  c #74595E",
"n  c #7B5A5E",
"m  c #7E625A",
"M  c #5D5762",
"N  c #5B5A65",
"B  c #615B65",
"V  c #6F5B60",
"C  c #745D60",
"Z  c #7A5E61",
"A  c #696269",
"S  c #766061",
"D  c #7B6263",
"F  c #7F6A67",
"G  c #7E6A68",
"H  c #7A757D",
"J  c #86374C",
"K  c #913C4E",
"L  c #A3394F",
"P  c #A73E51",
"I  c #AD3B51",
"U  c #8C414E",
"Y  c #84504C",
"T  c #93554E",
"R  c #9A584F",
"E  c #854750",
"W  c #8B4E55",
"Q  c #9D4251",
"!  c #934C53",
"~  c #8C5D55",
"^  c #815C5F",
"/  c #935D54",
"(  c #A44453",
")  c #AC4453",
"_  c #B34354",
"`  c #B94555",
"'  c #BB4956",
"]  c #BD4C58",
"[  c #A35156",
"{  c #A65D52",
"}  c #B55459",
"|  c #B8565A",
" . c #946056",
".. c #956358",
"X. c #A86155",
"o. c #AB6758",
"O. c #A3695B",
"+. c #AD6C5B",
"@. c #B16F5D",
"#. c #B3715E",
"$. c #805F61",
"%. c #826565",
"&. c #886665",
"*. c #846967",
"=. c #8A6967",
"-. c #866B68",
";. c #8B6D69",
":. c #936E6A",
">. c #986F6B",
",. c #8E716C",
"<. c #91736D",
"1. c #9C726D",
"2. c #887876",
"3. c #897E7F",
"4. c #937770",
"5. c #9F7670",
"6. c #947971",
"7. c #9C7D75",
"8. c #A17765",
"9. c #A37866",
"0. c #A7776A",
"q. c #B47662",
"w. c #B97C66",
"e. c #A47C74",
"r. c #AE7F76",
"t. c #B17F76",
"y. c #C44556",
"u. c #C24C58",
"i. c #CE4858",
"p. c #CA545B",
"a. c #DB585E",
"s. c #E35B60",
"d. c #DE6061",
"f. c #E96262",
"g. c #9C837A",
"h. c #BC836B",
"j. c #BE886E",
"k. c #A88A7F",
"l. c #B48077",
"z. c #B5857A",
"x. c #BB8479",
"c. c #B98A7D",
"v. c #C1866C",
"b. c #C3896F",
"n. c #C58D71",
"m. c #C3897D",
"M. c #7C7E87",
"N. c #82848E",
"B. c #BB9989",
"V. c #C79283",
"C. c #C69D8C",
"Z. c #CB9B8A",
"A. c #D49283",
"S. c #D59D8B",
"D. c #E49E8B",
"F. c #C3A08F",
"G. c #CDA691",
"H. c #D6AD96",
"J. c #DEAE97",
"K. c #E6A18D",
"L. c #EBA792",
"P. c #E3AB94",
"I. c #E0B199",
"U. c #EDB299",
"Y. c #EBB99F",
"T. c #F1B59B",
"R. c #F2B89D",
"E. c #ECBDA2",
"W. c #F6BDA1",
"Q. c #EFC0A4",
"!. c #EFC5AA",
"~. c #F4C0A4",
"^. c #FAC3A6",
"/. c #FCC7A9",
"(. c #FDCAAB",
"). c #F1CFB3",
"_. c #FDD1B3",
"`. c #FDD7B9",
"'. c #FEDABD",
/* pixels */
"e t k k k k k k k k k e t k k k k k k k k k k k k k k k t y k k k k k k k k k k k l f k w t k k e M ",
"e y l b b b b b b C v k k b b C v b b v b b b b b b b l y l b b b b C v n v v V b b V l l B V l y M ",
"e k v l k Z Z Z D S D D Z Z D C Z Z Z Z k l S D Z Z D C S Z Z Z D S D Z C k V Z Z Z Z Z Z C V f e M ",
"t l ^ b V Z -.;.<.<.,.<.4.6.4.4.<.4.>.=.b x %.-.:.4.<.4.6.6.6.4.<.<.<.;.&.l n %.;.<.<.<.:.:.$.l e M ",
"t v ^ Z l Z &.;.<.<.<.<.<.4.<.,.<.*.S l f w l C S S D S D D G ,.<.<.,.-.Z l v %.;.<.4.<.<.;.$.v e M ",
"e k n v l Z %.-.-.-.-.-.-.-.-.*.V D :.;.;.v G g.g.g.g.g.g.g.6.V D -.F Z v k b Z -.-.-.-.*.*.C k e M ",
"e y l l V C C C C C x l l C C w 8 V.W.W.W.S.7.Q._._.'.'.'.'.).G 3 V C C C C C C C C C C V k V l y M ",
"e y b &.;.<.,.:.,.=.D x v =.*.8 -.U.^./.(.P.,.E._._.`.'.'.'.'.F.q C 4.4.<.;.<.,.,.,.;.%.C l n ^ k M ",
"e y v &.<.<.,.,.,.;.Z l v %.S 3 c./.(.(./.P.,.E./.(._._.`.'.'.!.z k <.<.<.<.<.<.<.,.;.*.b l ^ $.k M ",
"e y V %.=.;.;.F D %.C l l %.b 3 c./.(./.(.J.,.E.(.(.(.(.(.(.(.Q.z w ,.;.,.,.;.;.*.%.D D v l n C y M ",
"e y l l l C V C V C C l x V r # c./.(.(.(.P.,.E.(.(./.(.(././.Q.z 8 x C x l x C C V C C v l l k y M ",
"e l n v l $.*.;.;.;.,.,.,.4.S % z.R././.(.P.,.E.(./.R.R.~.^./.Q.z r ;.-.%.k n %.;.;.;.;.;.&.$.l e M ",
"e b ^ n l b -.;.<.<.<.<.4.6.F % z.T.W.W./.J.,.E./.^.T.T.R.R./.Q.z r ,.,.Z l v D -.<.<.<.4.,.%.v e M ",
"e l n b l $.=.,.,.,.,.,.,.<.S 3 l.L.L.U.^.P.,.E.(.T.K.K.K.T.R.Y.z r -.%.C l Z %.;.<.4.;.:.=.Z l e M ",
"e y l l l V V C C C C V V b w # >.D.D.K.V.l.S B.H.^.~.W.~.^.^.Y.z 8 C V l k V l C C C C C l l f e M ",
"e y l Z %.=.=.=.-.*.C l x k q 2.7.>.>.=.0 o . o x P./.(.(.(.(.U.y q ,.;.=.=.=.-.-.=.*.D b k Z b y M ",
"e y b %.,.4.<.,.,.*.C l v 5 r k.e.x.x.t.q   .   7 S.J.I.I.G.C.V.r r 4.4.<.<.4.,.,.;.;.%.v l ^ ^ k M ",
"e y Z &.,.,.,.=.*.*.Z x b 7 r e.>.A.A.m.w   .   w m.r.t.t.:.&.0.w r ,.<.<.<.,.:.;.-.*.%.v l n ^ k M ",
"e y l V C C C D S C v l l k 3 q w 7 f 7 o . . . o 7 w w w w w q o q S b S C S Z S S C C V k v l e M ",
"e k Z v l D %.%.%.%.%.*.*.k $ u i s m n m m m $.m c h h h c m n j 4 b F m k C F %.*.%.%.&.$.C k e M ",
"e b $.n l Z *.;.<.<.<.4.4.z $ R { @.v.n.n.n.n.n.j.<.A 2.3.6.j.n.j.j q ,.=.x v %.-.<.<.<.<.,.$.V e M ",
"t v ^ b l Z =.<.<.<.<.<.<.k $ R { w.b.n.n.n.n.n.5.A N M.N.A 9.n.n.m 3 D b l b %.;.4.<.<.4.,.Z l e M ",
"e k v v k Z D D D F F D F w $ R X.w.b.n.n.n.n.n.8.o   9 N 3 1.n.b...& r v k v b D F D F Z Z C k e M ",
"e e l n D Z D D Z Z C l r O $ R @.#.v.v.b.b.n.n.8.3 . A H 4 9.b.h.~ # g D D Z F D D Z Z V k V v y M ",
"e e n &.:.<.<.<.<.-.D k w = - R X.o.#.#.h.h.b.b.h. . . ./ ..h.h.#.s 4 -.<.<.<.<.4.4.;.%.b l ^ $.k M ",
"e t C &.<.<.,.;.;.;.Z 0 , ] U i T { o.@.#.#.#.#.#.@.@.@.#.#.#.@.+.u 4 ,.<.<.<.<.;.;.;.%.b l ^ ^ k M ",
"e t l Z *.-.%.D S D l # [ f._ : a Y Y Y Y Y Y Y Y d Y Y Y Y Y Y a # k %.-.-.-.*.D D Z Z v k C v y M ",
"e y l l k C C C C C k # | s.y.L * X X + + + + X X X X X + X X X . . & 8 k k x b C C C Z C V l k y M ",
"y v ^ b l Z =.;.<.<.D % | f.) * X   $ ( ) P J X       X J > X * ; & o k l f C &.;.;.<.<.,.;.&.l e M ",
"e v ^ n l Z ;.;.<.<.D % } f.p.! $ r :.W p.i.I 1 +   + 1 L 2 * ` a.E w S.k & v %.;.4.<.<.:.4.Z V e M ",
"e l n b l Z *.;.;.;.m # Q a.f.d., =.Z.4 } s.p.( E , p ( ` 2 @ K L , 8 5.w 8 C $.=.;.;.;.&.&.Z k e M ",
"e y l l l V C C V C k & < ' u.' - D z.& Q u.u.' ' ' ' ' ` < X X # o o % 3 k V V V C C C V l l k y M ",
"e t b $.;.,.,.,.;.-.Z w % @ @ @ X 3 3 . + @ @ @ @ @ @ : 1 * % S D D -.G *.;.,.,.,.,.;.F v k n ^ k M ",
"e e Z %.<.<.,.;.;.-.C l l & . X .   . . . .   . . .   @ > * 3 ;.<.<.4.6.<.<.<.<.;.;.-.%.v l n ^ k M ",
"t t v &.;.;.;.-.-.%.Z v V w + > o . . . . . . . . . .   + @ # %.;.,.,.,.,.,.,.;.;.-.%.%.b l ^ n k M ",
"t t k l V C C C C V v w & + . X . . . .   . . . . . . . . . % x V V m b V x C C C V C v l g l l y M ",
"t l n b l $.*.-.-.;.;.g o w w w 7 7 g 7 7 7 o . . . . . . . O S -.;.-.-.%.l Z %.-.=.;.;.;.%.$.k e M ",
"t b ^ b l Z *.;.<.<.,.k $ O.q.b.h.h.#.@.@.O.5 . . . . . .   . z ,.,.<.,.*.l v %.-.,.<.<.<.<.%.v e M ",
"y l ^ n l $.=.:.<.<.<.k $ R @.w.h.#.#.o.o.R $   . . . . . . . g 4.,.-.%.v k n %.,.<.<.<.<.;.$.l e M ",
"e y l l k b C Z S S C k 5 6 u u u u u u u 6 o X o . . . . .   q S S C C v k x v C C C Z C C l y e M ",
"e t l Z %.*.%.%.%.F Z l k 0 4 % X $ X # 4 4 4 g Z C q . . . X B *.*.*.-.*.%.%.*.-.%.%.D C k b n y M ",
"e t n =.<.<.<.<.<.=.S x b %.,.k $ R 3 r ,.,.,.,.4.4.D & . . & ;.,.<.4.4.<.<.<.<.<.4.,.%.b l n ^ l M ",
"e t v %.,.<.<.;.*.=.S l v %.,.g 5 9.q r <.4.<.,.;.-.-.q . % C <.<.<.4.<.<.4.<.<.;.=.-.-.b l ^ ^ k M ",
"y t k C D D D S C C b l l n S q # g w l D D m F C C Z k & y Z Z D F D D D D D D D C C C v k v l y M ",
"e k v l k C S S F D D D D F D k 8 0 V Z l l Z Z D D D D Z G Z Z D D D Z C f C Z D D F D S S v y e M ",
"e v ^ Z l Z =.,.,.<.<.<.6.6.<.,.<.;.;.&.V V D ;.;.4.4.4.4.6.6.4.<.<.4.;.&.l b %.;.;.<.<.<.:.%.l e M ",
"t l ^ n l n ;.,.<.<.<.<.<.<.<.<.4.;.=.Z l v Z ;.,.4.:.4.4.<.4.<.<.<.;.-.C l b %.;.<.<.<.<.<.%.l e M ",
"y f b v l n F *.*.-.*.-.-.-.*.*.*.D Z C l l Z %.*.%.*.%.%.-.%.%.-.%.D D v k n Z %.-.*.*.%.%.n k e M ",
"e t l l v v v v v v l k k V v v v v v v l l v v v v l l f k v v v v v v v l V v v v v v l y l l k M ",
"e t k v l v l v V v l f f l l V v v v l v v l v v l l l y k l v v l v l v l v v v l v l l y l l k M "
};
