/* XPM */
static char *result[] = {
/* columns rows colors chars-per-pixel */
"50 50 171 2 ",
"   c #2F3241",
".  c #323443",
"X  c #3B3644",
"o  c #3D3A46",
"O  c #3F3C48",
"+  c #433644",
"@  c #4A3645",
"#  c #4A3D46",
"$  c #433E49",
"%  c #4A3E4A",
"&  c #543546",
"*  c #5B3647",
"=  c #653648",
"-  c #6A3648",
";  c #6C3C4B",
":  c #73374A",
">  c #703E4C",
",  c #7C384B",
"<  c #46414C",
"1  c #4C444D",
"2  c #564047",
"3  c #54434C",
"4  c #5C4248",
"5  c #54494E",
"6  c #5B494F",
"7  c #424553",
"8  c #4D4851",
"9  c #524751",
"0  c #554A52",
"q  c #5C4D55",
"w  c #554F5A",
"e  c #5E4F58",
"r  c #5D5156",
"t  c #56505B",
"y  c #5B515B",
"u  c #65424A",
"i  c #6C464A",
"p  c #6A484A",
"a  c #74454D",
"s  c #714C4C",
"d  c #7C4E4C",
"f  c #615257",
"g  c #6D5553",
"h  c #6A5857",
"j  c #64535C",
"k  c #6C565C",
"l  c #65595C",
"z  c #6D595E",
"x  c #7D5A56",
"c  c #72575D",
"v  c #73595E",
"b  c #7C5B5E",
"n  c #585A66",
"m  c #595B68",
"M  c #6F5B60",
"N  c #745D61",
"B  c #7B5E61",
"V  c #6F6062",
"C  c #6A676F",
"Z  c #776262",
"A  c #7B6263",
"S  c #7E6867",
"D  c #656672",
"F  c #696B77",
"G  c #82374C",
"H  c #88374C",
"J  c #8D3C4E",
"K  c #973D4F",
"L  c #9D3C4F",
"P  c #A53C50",
"I  c #A83B51",
"U  c #82424E",
"Y  c #814E4C",
"T  c #83524E",
"R  c #8C534E",
"E  c #93554F",
"W  c #8C4851",
"Q  c #954050",
"!  c #984050",
"~  c #944852",
"^  c #845651",
"/  c #855953",
"(  c #815C5F",
")  c #AA4754",
"_  c #B14755",
"`  c #BE4756",
"'  c #B24B56",
"]  c #B35057",
"[  c #836058",
"{  c #8B645B",
"}  c #8D695E",
"|  c #A96356",
" . c #A16659",
".. c #A66658",
"X. c #AE6758",
"o. c #AC6C5C",
"O. c #B16C5C",
"+. c #B4715F",
"@. c #835E60",
"#. c #826565",
"$. c #886665",
"%. c #846967",
"&. c #896967",
"*. c #866A68",
"=. c #8A6D69",
"-. c #906D61",
";. c #936D6A",
":. c #986F6A",
">. c #8E716B",
",. c #967062",
"<. c #987163",
"1. c #91736D",
"2. c #8B7570",
"3. c #8F7873",
"4. c #947670",
"5. c #937972",
"6. c #A2756F",
"7. c #BB7B65",
"8. c #A67770",
"9. c #A27D75",
"0. c #AC7D75",
"q. c #B17F76",
"w. c #CB4757",
"e. c #C24957",
"r. c #C64D59",
"t. c #D14C5A",
"y. c #C1545A",
"u. c #DD575E",
"i. c #D45D5F",
"p. c #E05A5F",
"a. c #E35D60",
"s. c #E46162",
"d. c #9C8279",
"f. c #B3826B",
"g. c #BC836B",
"h. c #BE896F",
"j. c #A78178",
"k. c #A4887D",
"l. c #B48177",
"z. c #B6867B",
"x. c #C1866D",
"c. c #C38A6F",
"v. c #C58D71",
"b. c #C3887C",
"n. c #8D898F",
"m. c #928E93",
"M. c #BF9283",
"N. c #C99988",
"B. c #D09081",
"V. c #E49F8C",
"C. c #D6A28E",
"Z. c #CCA591",
"A. c #D5AC96",
"S. c #E2A691",
"D. c #E9A791",
"F. c #E5AC95",
"G. c #EBAC95",
"H. c #E1B39C",
"J. c #EAB39A",
"K. c #F1B59C",
"L. c #F3B89E",
"P. c #ECBEA2",
"I. c #F6BDA1",
"U. c #F4C3A6",
"Y. c #F9C3A5",
"T. c #FBC6A8",
"R. c #FDCAAB",
"E. c #FCCEB0",
"W. c #FDD3B4",
"Q. c #FED7B9",
"!. c #FDDABC",
/* pixels */
"w t f j j j j j j j f y y j j j j j j j j j j j j j j j e e n j f j j j j j j j j j j j y y j j w w ",
"w t j v N c c c v c c j j k c c N c c c c b c c v c N k e j c c c c c v N c c c c v c k k y k k y w ",
"w y k c j N B Z A Z A Z Z Z Z B Z Z B N j j B B Z B Z B Z Z B B A A Z A N j k B B Z B Z Z B M j t w ",
"w j ( b k B %.=.1.1.1.1.5.5.4.4.4.1.1.;.B k A *.=.4.4.1.4.4.5.4.1.1.1.>.&.c N #.=.>.>.4.;.=.$.k w w ",
"w k @.b k c %.;.>.5.>.1.1.3.5.>.;.>.=.#.c k B =.=.1.1.1.4.4.4.1.1.1.>.*.A k v A =.4.4.>.1.>.@.k t w ",
"w f c B j B @.%.%.$.*.*.*.$.*.$.*.#.A N k j B #.*.*.*.*.%.*.%.%.%.$.S A v j v A #.*.*.*.*.#.B j t w ",
"w w j k M N N N N N v k j v v N N N M j j f j k j j j j w e k N N N N N v v N v N N N N M j k k y w ",
"w w k @.=.4.>.>.>.>.A v z $.>.1.>.A Z =.=.v Z 5.5.5.5.5.5.5.*.N =.1.5.5.>.1.1.>.>.1.=.#.B k b b j w ",
"w w c A ;.4.>.>.>.=.A M k A ;.1.S 8 z.L.I.C.9.P.E.W.Q.!.!.!.P.y z 1.5.1.1.1.1.1.>.>.=.*.M k b @.k w ",
"w w j @.$.=.*.#.A S B c k A $.=.r v F.T.R.J.4.P.E.W.Q.Q.!.!.R.k.9 %.=.=.=.>.*.>.%.#.Z B c k b B y w ",
"w w j k j M M N N N N k z z M z $ 1.Y.R.R.J.4.I.R.R.E.W.Q.!.W.Z.< j N M z j c v N N N N M j j j y w ",
"w j B B k B %.=.=.>.=.>.>.3.>.>.1 :.Y.T.R.J.4.P.R.R.R.R.R.R.R.Z.1 S =.=.#.k v $.*.=.1.=.=.;.@.k w w ",
"w k @.b k c #.=.>.4.4.1.1.5.>.>.5 ;.I.R.R.J.4.P.R.T.Y.T.T.R.R.Z.1 #.1.>.B k k B =.1.1.1.;.1.#.c t w ",
"w j b b k b $.;.=.=.=.>.1.=.>.>.1 ;.G.U.T.J.4.P.R.K.K.I.Y.R.R.Z.1 S *.#.B j B #.=.=.1.=.=.=.B k w w ",
"w w j k j k M N N N N M z c N c $ ;.G.G.K.F.4.U.I.D.D.G.L.I.R.Z.< j M N M j k c M N N N M k j f t w ",
"w w j B $.=.&.=.=.*.B k j #.*.#.% $.V.D.S.N.*.A.J.K.K.K.I.Y.R.N.1 A =.=.=.=.=.%.=.=.=.A N k B b j w ",
"w w k B 1.1.1.=.=.=.A k k A =.j M >.9.8.v 1 < 8 >.I.R.R.U.U.K.M.1 S 1.1.1.1.1.1.>.=.=.#.c j @.( j w ",
"w w c $.=.1.1.=.*.#.#.c c [ b 1 d.9.l.q.h       v S.H.H.z.S #.4.1 S 1.1.1.1.1.1.=.&.%.#.b j b b j w ",
"w e j c N N N N N N N j j c j 1 =.:.b.B.v   .   z z.0.l.b.:.:.6.< h Z N N Z N N N N N N c j c k w w ",
"w y b c j B #.%.#.*.*.*.*.*.*.f 1 5 9 9 < X X X < 5 6 5 0 5 5 1 O N %.%.A j v #.%.%.%.%.%.#.B j w w ",
"w j @.B k c #.=.1.1.1.1.4.5.>.9 u T { <.<.<.<.<.} x v b } ,.-.<.g f >.>.&.v c A *.>.1.1.1.1.#.c w w ",
"w j b @.k B $.1.1.1.1.1.1.1.*.< Y X.g.v.v.v.v.h.2.C n.m.4.c.v.v. .$ N *.B j v #.>.1.1.1.1.=.#.j w w ",
"w e k c j N B Z A A A Z A Z N $ Y X.x.v.v.v.v.f.w 7 n m r h.v.v.o.2 q N c j c v B A A A A B c f w w ",
"w w j b A A A A #.A B M k k e O T O.7.v.c.v.v.f.<   D F 5 g.v.c...4 0 A #.Z A S S A A A v j c c e w ",
"w w c $.;.1.4.1.1.=.S c j 4 @ X T +.+.+.x.x.v.h.x s x x [ v.h.+. .4 l 4.1.1.1.1.>.4.>.#.B j ( ( M w ",
"w w k B =.1.1.=.=.=.A k < Q _ J a E | o.+.+.7.+.+.+.+.+.+.+.+.+.E % N 1.1.1.1.1.=.=.=.%.c k b ( j w ",
"w w y B A #.S B N N B 5 u i.a.` : i R R R R R R R R R R R R R R p 1 Z #.%.%.S #.A Z B N c j c c w w ",
"w y k M j N N B B A N 8 a s.a.r._ : # # @ @ + + X X X o + + o # X k A B v j z v B B N B B N M j w w ",
"w k ( ( j b #.=.1.1.1.r a a.e.; P ` _ _ ' _ P = . .   X G = * U % S 1.=.$.k c #.*.>.4.>.;.=.$.M w w ",
"w j ( b k B *.=.1.1.1.r i y.! @ L u.p.a.p.u.w.L - . X : P : > ' % S =.=.B k c #.>.>.>.4.1.1.@.M w w ",
"w y b v j b #.%.*.*.*.q o 3 1 X K w.t.p.p.p.p.y.) W ~ ' ` : > ] % N #.B c j c B %.*.*.*.$.#.B j t t ",
"w w j k k N N N N N v 8 z z.z.1 , I ! ! ! ! ! ! ! ! ! ! L * & U O M N N N M M N N N N N M j j M y w ",
"w w k #.=.;.>.>.>.=.A j f A V O - H : & @ . . . . . . & : & O 1 $ S 5.5.1.1.1.>.1.=.=.#.N j b ( j w ",
"w w k #.1.1.>.=.*.*.A k q 3 8 X = * X X X .   . . . . . @ @ z j.1 %.1.1.1.1.1.1.=.=.%.S c k b ( M w ",
"w w j @.=.=.=.#.%.#.A v 0 $ < X @ + X X . X . . . . . . X X < y N *.>.=.=.=.=.=.=.#.#.#.b j b b j w ",
"w w j k j M N N N N c z 0 < [ } &.} } { { / 1 . . . . . .   O r v V v v N j z N N N N N k k k j w w ",
"w k b b k B *.=.>.>.>.>.z # | 7.c.x.7.+.X.| 2   . . . . .   0 >.>.>.>.=.$.h v #.=.=.=.=.=.=.@.j w w ",
"w k @.( j c *.=.>.1.>.1.Z 0 d T ^ ^ ^ ^ ^ d # .   .   . .   0 >.1.>.1.>.#.z k A =.1.1.1.1.1.$.c w w ",
"w j b b c B $.=.>.>.>.>.1.A 1 $ X o o X o o $ $ $ X .   . . w >.>.>.*.S N j B $.=.1.=.1.=.=.B j w w ",
"w w j j j c c N v N N v z v j j $ i s $ e f j j k q X   .   < Z Z v v z k j k c N N N N N M k j w w ",
"w w j B #.*.*.=.*.*.A c k $.$.%.1 x { < %.*.=.=.=.N X .   o j *.*.=.=.=.*.*.*.=.*.*.*.A B j B b w w ",
"w w c $.1.1.1.1.>.>.S c k #.>.>.5 1 h Z >.>.1.1.1.Z X   X q %.1.4.>.5.5.1.4.1.1.1.1.>.#.N j ( @.M w ",
"w w j #.;.>.1.=.%.%.Z c c A =.>.z r N 1.1.>.1.=.=.N q 9 q c #.;.>.>.>.1.1.1.1.1.=.%.#.#.c k b b M w ",
"w w y z N N N N v N N j j c v Z N A N N Z N Z N N N N M j k M N N Z B Z N N N B N N N N k j k k t w ",
"w f b c k B A #.*.#.#.*.$.*.%.S %.#.#.B c k B #.#.#.*.#.%.%.%.%.*.#.*.S B j c A #.#.#.#.#.#.b e w w ",
"w j ( B j c #.=.>.1.1.1.5.5.1.1.1.1.1.=.B j B $.=.1.4.1.4.4.3.4.1.1.1.=.$.k c B *.=.4.1.1.1.$.k t t ",
"w j b ( k B $.1.1.1.1.1.1.1.1.1.4.=.=.Z k k B =.1.1.>.1.4.1.1.1.1.1.=.*.N k c #.>.1.4.1.1.=.A c t t ",
"w w c c j c B Z S A A A S Z A S A Z N c k k N B A A S Z B S B @.A A B N M j c B A A A A A B N j t t ",
"w w j c c c c c c c c j j k M c c c B c c c c c c c c c e j M c v c c c c v c c c c c c k e k c j q ",
"w w e j k j j k j k j j e j e M j j j j j k k j j j j j y e j j j k k j j j k k k j j k n e j j e e "
};
