/* XPM */
static char *result[] = {
/* columns rows colors chars-per-pixel */
"50 50 61 1 ",
"  c #554F5A",
". c #56505B",
"X c #5C535C",
"o c #64545C",
"O c #6B555C",
"+ c #65595E",
"@ c #6C5A5E",
"# c #71575D",
"$ c #745B5E",
"% c #7C5A5E",
"& c #77605F",
"* c #7A615F",
"= c #595661",
"- c #5B5964",
"; c #5D5E69",
": c #615760",
"> c #645A61",
", c #6D5D62",
"< c #605F69",
"1 c #735E61",
"2 c #7C5E60",
"3 c #5E626D",
"4 c #6F6364",
"5 c #62616B",
"6 c #6B6369",
"7 c #746163",
"8 c #7D6360",
"9 c #7F6A66",
"0 c #646670",
"q c #636A75",
"w c #6A6C75",
"e c #666E79",
"r c #696F79",
"t c #6E7077",
"y c #6C727B",
"u c #71767E",
"i c #72787F",
"p c #815C5F",
"a c #836562",
"s c #826A66",
"d c #8C6A62",
"f c #8E6E6A",
"g c #946E63",
"h c #986F63",
"j c #8E706B",
"k c #957266",
"l c #997165",
"z c #95756B",
"x c #9D7768",
"c c #97796C",
"v c #9D7A6B",
"b c #A27D6D",
"n c #A68673",
"m c #A98673",
"M c #AC8B76",
"N c #AE8E78",
"B c #747C84",
"V c #787F87",
"C c #788087",
"Z c #7A838A",
"A c #7F8990",
/* pixels */
" .XoooooooX5yyyByyyuuuyeyCiCCCiuBrBBBqB3=XXoX oo  ",
" .O####%$+5w5=XX====XX.3X.3.====.=..=.30w>O,,=O#X ",
" XO#o1%1+53+8&add*o8aoo..               =w:,22,o  ",
" op%O2s,w;7gl8kkhk*gha*$....    .... .  .-0,afpO  ",
" OppO#1<q+vsa*zd*h*d&d*@   = ...........  ;w,fp1  ",
" X%#o%>w3+ncd*vkag*dad*$.    ......... .. =w<1po  ",
"  o##1:r=@nNx*cxlg*gld*a4. .............. .q5oOoX ",
"  ,pfs<wX&nNlacxhg*gldah*. .............. .3wXppo ",
"  #pj1w01snNl*vxhg*gld*l*. ............... -rX%pO ",
"  O2a,006snNx*cxhg*ghg*h*. ............... -rX%2o ",
" .oOOo0049nMx*kxhg*gld*g*................ .-r:Oo  ",
" o%%oO004sbnx*kvlg*gld*s@........ .........-t:pO  ",
" Op%Oo00:1aaa+,aa*X*91++.................. -t>p1  ",
" o%%#o00.X===X==XXX3-.X.. ................ -r>2>  ",
"  oOOo00;5BBeqqqqqqqqqq3X. ............... -rXoo  ",
"  o2a100<0BAByqqqqqqqqqq3. ............ .. -wX%%o ",
"  Oaj*003quuCeqqqqqqqe333. ............... -t:2pO ",
"  #aj$w03qeqCeqqqqqqqq333.  .............. -r:2po ",
" .oO@+w530CCCqqqqqqqqqe33   .............. -t=OO. ",
" o%$Oow035BCeeqqqqqqqq33=   .............  -rX2o  ",
" Op%ooww XX-XX3X==.--.X..... ............. -r>p1 .",
" o%%OOtw    ..      .... ................. -r>2o  ",
" .##ootwX@***o1*4*X&9@X@.................. -r:1o .",
"  o%*@tq1*nnx*dhkk*gld**X. ....... ....... -t:##o ",
"  #az7wq49nNn*cxhg*ghd*a>X ......... ..... -rXppo ",
"  Opf1004snNx*xxhh*glg*h*................  -ro%po ",
"  o$p,004snNl*vxhg*ghdal*................. -t:##X ",
" XO#:o0049nNl*cxhg*gld*h*X................ -r:Oo. ",
" op%Oo004snNl*cxgg*ghd*l*. ............... -t:p,. ",
" OppOO004snNl*cxhg*ghd*x*. ............... -B>p1. ",
" X#%OO004smNlacxhg*kld*l*X ............... -B:#O. ",
"  oO,o004snNl*cxhg*glg*x*. ............... -BoOOX ",
"  #pf1w0,snml8vbhg*gld*g*   .............. 3y+*%o ",
"  Oaz7006slnl8klgg*ggg*d&  ............... XiX%po ",
" .O2a100,8dkd@8kkd+9g*1*+. ... ........... 3io%$o ",
" .oOOo00.X:ooXXo+X.-+X X. ................ -yXOo. ",
" op%oo00=;qewq3333333333X     ............ -y>%O  ",
" Op%OO0050VACyeqqeeeqq333     ............ -y+8@. ",
" o%pOO<050BCAeqqqqqqqq333   .............. -y>2O .",
" .oOoo0050eqZeqqqeqqqq333   .... ......... =yXOX  ",
"  O2s&0050BBZyqqqqqqqqqq3. ............... -yX%%o ",
"  Oaj70055BZBeqqqqqqqeq3-. ............... -ro%2O ",
"  O8j700==333;3;3--3333... ............... -t=%%> ",
" .X@$+00....             ......... ....... -tXOO. ",
" X%#oo50XX@@+.X@@+.o@oXX.................. -yo1X  ",
" OppOo60,*lxg$dxhd&dha&*@. ............... -y>aO  ",
" o%%OO004sc9k*cd*h*d&d&&&. ............... -r>2#  ",
" .##oo3349cak*ddad&daa&&@. . ............. -0X#o  ",
" .O##o.XXo$1@Xo@$@.+$+.o.  ... ........... ==.O#O ",
" .XoOX          ....      ....X .. ........  .oOo "
};
