/* XPM */
static char *result[] = {
/* columns rows colors chars-per-pixel */
"50 50 211 2 ",
"   c #2F3443",
".  c #2E3D4B",
"X  c #323443",
"o  c #3B3644",
"O  c #313946",
"+  c #3B3946",
"@  c #333D48",
"#  c #3C3B49",
"$  c #3C3E50",
"%  c #403646",
"&  c #4F3546",
"*  c #443A46",
"=  c #4C3C46",
"-  c #423E4A",
";  c #4B3E48",
":  c #533546",
">  c #5E3547",
",  c #523E46",
"<  c #553C49",
"1  c #663849",
"2  c #723649",
"3  c #79384B",
"4  c #2F444E",
"5  c #31444B",
"6  c #324A4F",
"7  c #2D4552",
"8  c #2B4B57",
"9  c #2A525D",
"0  c #2C5C5F",
"q  c #315352",
"w  c #325B59",
"e  c #2E615F",
"r  c #32635B",
"t  c #326B5E",
"y  c #295A64",
"u  c #2B6568",
"i  c #336863",
"p  c #337362",
"a  c #347966",
"s  c #246F76",
"d  c #2B7C74",
"f  c #267A79",
"g  c #46414C",
"h  c #4C434C",
"j  c #5A4147",
"k  c #51454D",
"l  c #5C434A",
"z  c #414457",
"x  c #4B4956",
"c  c #444659",
"v  c #534750",
"b  c #544951",
"n  c #5B4B54",
"m  c #554F5A",
"M  c #5C4F59",
"N  c #4D505F",
"B  c #56505B",
"V  c #5B515B",
"C  c #634549",
"Z  c #67484B",
"A  c #6C4A4D",
"S  c #77474C",
"D  c #70504F",
"F  c #624E54",
"G  c #6C4951",
"H  c #764B53",
"J  c #645256",
"K  c #64535B",
"L  c #695558",
"P  c #6C565C",
"I  c #6E5A5E",
"U  c #735452",
"Y  c #745A57",
"T  c #71575D",
"R  c #74595E",
"E  c #7B5B5E",
"W  c #72615A",
"Q  c #4B4E62",
"!  c #4E5262",
"~  c #5D5762",
"^  c #565769",
"/  c #565971",
"(  c #5A5E77",
")  c #685A61",
"_  c #745D60",
"`  c #7A5E61",
"'  c #5E617B",
"]  c #776262",
"[  c #7B6263",
"{  c #7E6A68",
"}  c #84394C",
"|  c #8B3A4D",
" . c #96384E",
".. c #9A394E",
"X. c #A3394F",
"o. c #A73B50",
"O. c #B03A51",
"+. c #BD3A52",
"@. c #824F4C",
"#. c #84534F",
"$. c #8D544E",
"%. c #95564F",
"&. c #844C53",
"*. c #8B4A52",
"=. c #8B5855",
"-. c #815C5F",
";. c #9C5152",
":. c #A34051",
">. c #B44855",
",. c #A45C52",
"<. c #B6565A",
"1. c #A86255",
"2. c #AC6758",
"3. c #A46B5D",
"4. c #AB6B5B",
"5. c #B06C5C",
"6. c #805F61",
"7. c #826565",
"8. c #896766",
"9. c #846967",
"0. c #896866",
"q. c #866B68",
"w. c #8B6D69",
"e. c #956D66",
"r. c #8E716C",
"t. c #91736D",
"y. c #9B7269",
"u. c #8F7872",
"i. c #937770",
"p. c #947A72",
"a. c #AB7563",
"s. c #B57461",
"d. c #B67A65",
"f. c #B77E68",
"g. c #A67C74",
"h. c #AB7D75",
"j. c #B27F76",
"k. c #C64155",
"l. c #C84556",
"z. c #CC4758",
"x. c #CD4958",
"c. c #D14E5A",
"v. c #D5525C",
"b. c #DB565E",
"n. c #D45D5F",
"m. c #DD595F",
"M. c #E25E61",
"N. c #E66162",
"B. c #E86363",
"V. c #E76C66",
"C. c #E96965",
"Z. c #EA7369",
"A. c #EB7B6D",
"S. c #33836B",
"D. c #348C6F",
"F. c #2D8474",
"G. c #2B8579",
"H. c #2C8C7B",
"J. c #328E73",
"K. c #2D917D",
"L. c #329C7B",
"P. c #35A47B",
"I. c #B4836B",
"U. c #BC836B",
"Y. c #BF886E",
"T. c #AC8076",
"R. c #A4887D",
"E. c #B98877",
"W. c #C0866C",
"Q. c #C3896E",
"!. c #C58D71",
"~. c #C58B7E",
"^. c #C79074",
"/. c #C99476",
"(. c #CB9778",
"). c #CD9B7C",
"_. c #EF8672",
"`. c #F08E75",
"'. c #D0A07F",
"]. c #686C87",
"[. c #6D718E",
"{. c #788196",
"}. c #838E9C",
"|. c #BF9787",
" X c #BB9889",
".X c #CC8E80",
"XX c #D08F81",
"oX c #C89A89",
"OX c #DA9786",
"+X c #D79A89",
"@X c #E39F8C",
"#X c #D1A381",
"$X c #D7A48C",
"%X c #DAB18C",
"&X c #CFA390",
"*X c #D2A691",
"=X c #DCA691",
"-X c #D6AB95",
";X c #E5A18E",
":X c #EBAB94",
">X c #EDB49B",
",X c #E9B69C",
"<X c #F1B39A",
"1X c #F4B99E",
"2X c #EABBA1",
"3X c #F5BCA0",
"4X c #EFC0A4",
"5X c #F4C1A5",
"6X c #F9C3A6",
"7X c #FBC6A8",
"8X c #FDCAAB",
/* pixels */
"m B K K K K K K K K K m M K K K K K K K K K K K K K K K m M K K K K K K K K K K K K K F F V K F m ~ ",
"m V P T T R R T T _ T K K _ _ _ T T R _ R R T E T T ` ) K K T _ R _ _ T T T T ` ` T _ ) ) V ) T V ~ ",
"m K T P K ` ` [ [ [ ` [ _ [ [ [ ` ` ` ` K P ` [ ` ` [ ` [ ` ` ` [ ] [ ` ` K ) ` ` ` ` ` ` ` T K m ~ ",
"m P -.E P [ q.w.t.t.r.t.t.p.t.t.i.t.t.0.` ) 7.0.r.r.t.t.i.i.i.t.t.t.r.t.8.P E 6.w.r.t.t.r.r.6.P m ~ ",
"m T -.E P ` 0.w.t.t.t.t.t.9.[ [ [ [ 7.[ ) _ [ w.r.t.t.t.t.t.i.t.t.t.w.q.` P T 8.r.r.t.t.t.r.6.P m ~ ",
"m K E T P ` 7.0.q.9.q.q.[ g l &.&.&.U T P T ` 7.q.q.q.q.q.q.q.q.q.q.7.` _ K R ` 8.q.q.8.7.7.` K m ~ ",
"m M K T ) _ _ _ _ _ _ K K # S m.x.>.1 M K P _ _ _ _ _ _ K ) _ _ _ _ ` _ _ ) _ _ _ _ _ _ ) ) P P V ~ ",
"m M E 8.r.t.r.t.t.q.[ P P v S o.} : < G G n P ] ] ] T P n P _ [ ] w.i.t.r.r.w.t.r.r.r.7.` ) -.E K ~ ",
"m M _ 9.t.t.t.r.r.w.[ P Y E J % o X } >.*., = &.&.&.&.&.&.&.&.&.&.R [ r.r.t.t.t.r.r.w.8.T P -.6.K ~ ",
"m m _ 6.0.0.w.7.[ 7._ P L n H ;.3 X > 1 1 | X.x.m.C.V.Z.A.A.Z.C.N.<.=.F ] r.w.w.q.7.[ [ T P E E V ~ ",
"m m ) P P _ _ _ ) _ _ P K 5 1 :.} X o | O.x.m.M.N.C.C.C.Z._.A.C.C.B.m.*.h M I _ ) _ T _ ) P P K V ~ ",
"m P -.R ) 6.9.w.r.w.w.w.9.g o + o : 3 O.l.v.N.B.B.N.N.N.V.`._.A.Z.N.N.n.< g E 7.w.w.r.w.r.0.6.P m ~ ",
"m T 6.R P R 0.w.t.w.L J W W W J o 2 +.+.c.B.B.B.B.B.B.B.C.Z.Z.C.C.M.b.b.| % n ] 0.r.t.t.t.t.7.P m ~ ",
"M P -.E T 6.0.r.t.q.F y.L m r.9.- 2 +.+.z.m.b.m.M.M.B.B.B.B.B.B.M.N.b.v.o.% n 8.t.r.r.t.t.0.` P m ~ ",
"m M ) P K _ ) _ _ I J ` D Z n L # 2 +.+.+.z.l.c.b.b.M.B.N.B.N.N.B.N.c.l.o.% v T _ _ _ _ _ P P K m ~ ",
"m m P ` 8.0.0.0.q.7.K o A S + n # 2 +.+.+.k.k.z.x.z.x.z.z.z.z.z.z.z.z.l.X.% K q.q.q.q.[ T K E R V ~ ",
"m M R 7.t.t.t.r.w.] K Q m ~ c V # > ..O... . ... . . . . . . . . . . . .} o K t.t.r.w.[ T P E -.K ~ ",
"m n ` 8.r.t.w.q.7.v N }.[.{.].c X : 3 ..> o o % % % % % % % % % % o % % o X L t.w.q.q.7._ P -.-.K ~ ",
"m V P _ _ ` _ ` _ g # ! ! ! c @ X & 1 > : b y.h.h.T.T.T.T.h.T.T.h.h.h.R.K X b _ _ ] _ _ T K T P m ~ ",
"m ) R _ ) ` _ n o O O z c c #     : & n w..X;X3X3XoX X X*X5X3X3X3X&X|.oX X- n 7.7.9.7.7.7.[ ` K m ~ ",
"m R 6.E K _ v X $ Q ^ ].].].' N X o h ~.:X>X<X3X4Xu.x 9. X4X,X2X,XR.x {  Xx b [ w.r.t.t.t.t.7.P m ~ ",
"m ) -.E K k # # c ].[.].' ' N z O J g.;X8X8X8X8X7X=XT.,X8X&Xu.p.p.*XE.+X*Xh n 8.r.t.t.t.t.r.6.P m ~ ",
"m K T G k X O Q ^ / ( ( ^ / z X X -.e.XX3X6X5X8X8X6X6X8X8X2X*X*X-X5X7X7X-Xh b E [ [ [ [ [ [ _ V m ~ ",
"m V ) ; % C Z A G A A G A A A Z < 7.g.~.:X3X3X7X8X8X8X8X8X8X3X<X6X8X8X8X-Xg n [ [ [ [ [ _ K T T M ~ ",
"m m ` < & %.1.1.1.1.1.1.1.,.,.,.$.l K y.@X:X:X<X5X8X8X8X8X8X8X8X8X8X8X3XoX; K t.t.t.w.7._ P E 6.) ~ ",
"m V _ x * ;.5.U.W.W.W.U.s.2.1.,.@., # 8.j./.;X<X1X1X1X1X3X3X3X3X3X3X3X>Xg.g _ t.t.w.w.7.R P -.-.K ~ ",
"m m ) ; h 4.d.Q.!.!.!.U.s.5.,.%.- X O o o T 8.j.OXOXOXOXOXOXOXOXOXOXE.7.v K 7.q.[ [ ` ` T K E T V ~ ",
"m K P ; ; a.^./.^.^.!.!.Q.s.#.h u u y O o % X g J J J K J K J J J U F o X - n _ _ _ _ _ _ _ P K m ~ ",
"B T -.k k I.#X%X'.'./.!.Q.e.W w J.G.s . = C o 5 8 8 . X X X X 7 . o C = O 7 x _ w.t.t.t.r.w.8.P m ~ ",
"B R E k k U.'.%X).)./.!.I.k r P.P.K.f . j Z o r H.H.r O X X 6 d 9 o A , 5 d w - 7.t.t.t.t.t.6.T m ~ ",
"B L E h k I.).$X'.).(.^.I.h t P.P.P.f . U a.g t P.P.D.p 5 w a K.9 h a.U 4 F.r * 7.w.w.w.0.0.` K m ~ ",
"m V L g k Y.).).'./.^.!.I.h i P.L.a u @ W I.h r P.P.a p 5 r p F.9 h I.R . G.r # ) _ _ ) ) P P P m ~ ",
"m B T h k Y.(.).'./.Q.^.I.h r P.D.q O X Y I.h 0 L.P.D.S.6 p S.G.9 g f.P 4 d w - q.w.w.[ R L E E K ~ ",
"m V R v k U.^.Y.Y.^.Q.Q.I.k 5 6 q 5 X X D 3.- e L.P.P.P.S.K.L.H.y & 3.A   4 5 - 7.w.q.7.T P E -.P ~ ",
"m V T k h d.!.!.!.Q.U.U.a.h h Y R k X   D 3.- 0 H.P.P.P.L.L.K.f 9 h 3.D + L h g 7.q.7.7.R P -.E V ~ ",
"m M K - h a.Q.!.!.Q.U.U.3.k 7.$X=Xr.X X C $.* 9 G.F.F.F.G.G.G.s 8 - $.l v oX{ g I R ] I I K P P M ~ ",
"m P E l h =.3.Y.!.Q.Y.s.1.$.U I L k   X ; j o 4 9 7 . 7 8 8 y u 4 o C * + J P R q.w.w.0.w.8.` K m ~ ",
"m _ -.T n ; =.d.d.d.d.s.1.,.S j X   X   = C o 7 9 O   O 7 8 y y 4 o C = X g n 7.q.t.t.t.t.r.7.T m ~ ",
"m P 6.E K F Z C C C C C l C C j o X X X X o X O   X X X X O O X   X X X + J R 7.w.t.t.t.r.w.` P m ~ ",
"m V P P K T v # + + + + + + + + X   X X X X X X         X X   X X X X X + V I R ` _ _ ] _ _ P K m ~ ",
"m m P ` 7.q.[ 7.{ [ E K L [ 7._ + X X X X X k b m b v < ; x < X X X X X - [ 9.7.7.9.7.[ _ K R E V ~ ",
"m M E 0.t.t.t.t.t.q.[ P R 0.t.q.- X X X X - { r.w.r.7._ ) ` _ #   X X   - 0.t.t.t.t.r.7._ P E -.P ~ ",
"m B T 9.r.t.t.0.q.q.] P R 7.t.q.- X   X o b 7.r.w.q.8._ P ` _ #     X # b w.t.t.w.w.q.9.R K -.-.K ~ ",
"m m K _ [ [ [ ] R ] R L L E [ R +   X X b _ [ [ _ _ ` P K P P +     O b ] [ [ [ [ _ _ _ T K T P V ~ ",
"m K T P K E ] [ [ [ [ [ [ [ [ ] g + # n M P ` [ [ [ [ [ ` { _ - o # J I E K T ` [ [ [ [ [ ` T K m ~ ",
"B _ 6.E P ` 0.w.t.t.u.p.p.p.t.r.9.7.9.7.T _ ` w.t.t.t.t.u.p.u.9.7.8.t.w.7.P R 7.w.t.t.t.t.r.7.P m ~ ",
"m T -.R P ` w.r.t.t.t.t.t.t.t.t.t.t.w.` P T ` w.r.t.t.t.t.t.i.i.t.t.r.q._ P _ 7.w.t.r.t.t.r.` T m ~ ",
"m K R T P ` [ 9.9.q.9.9.9.9.9.9.q.[ ` _ K T ` 7.q.9.q.q.9.8.8.6.q.q.[ ] R K R ` 9.9.q.7.8.7.` K m ~ ",
"m m P P P T T T _ P P K K P T T T T T T T T P T T T P K K K T T T T T T T P T T T T T T P V P P K ~ ",
"m m P T T P P T P P P K K P P P P T P T P T T T T T P P V K P T T P P T T P P T P T T P P V P P K ~ "
};
