/* XPM */
static char *result[] = {
/* columns rows colors chars-per-pixel */
"50 50 43 1 ",
"  c #323443",
". c #3C3643",
"X c #3C3844",
"o c #3C3E4D",
"O c #403743",
"+ c #443943",
"@ c #4C3B43",
"# c #513D44",
"$ c #5A3F43",
"% c #554146",
"& c #5C4145",
"* c #634445",
"= c #6A4646",
"- c #6B4847",
"; c #6F4A48",
": c #734644",
"> c #784744",
", c #754946",
"< c #7B4A46",
"1 c #754C49",
"2 c #7C4E48",
"3 c #7E524B",
"4 c #834D47",
"5 c #824F48",
"6 c #84524A",
"7 c #8B554B",
"8 c #8E594D",
"9 c #91564B",
"0 c #955B4D",
"q c #9B5E4E",
"w c #985F50",
"e c #9F604F",
"r c #9D6150",
"t c #A0604F",
"y c #A56451",
"u c #A96753",
"i c #A76A54",
"p c #AB6B54",
"a c #AD7057",
"s c #AF7559",
"d c #B17659",
"f c #B37C5C",
"g c #B6815E",
/* pixels */
"                                                  ",
"                                                  ",
"       X  .. .. X  .X  X . ... .   .   . .        ",
"      $166655666666666666666363,=+*>457665>#      ",
"     +:0yyuuupupuupdfffpuuuuutt0<#:4wyyuut9:O     ",
"     #<6ttyuuuuuuuppaffppuuuuut7<+$&378yuy8:.     ",
"     @:;tuuuuuupuuuyuppuuuuiyy0*=@,*0yuuut4>.     ",
"     .*40yuuuuuuuuuuuuuuuuur862=&+>58ruyt8>$.     ",
"      O*:1111111111<11<<1113:1-*$O$-=111>*#       ",
"        @%&&&$*$&$#.+$%$&&&&&&&&$$$$$$*$$$*$#O    ",
"       O;9yyyyyww7<#=9wuyyyuiiiyyyyyyyyyyytq7*+   ",
"       @4wyuuuuw21*+=9tuuuupfgpuiuuuiuiuuutq9:O   ",
"       +20eyuuiut1,#==7uuuupadpuuuuuuuuuuuy0*>.   ",
"       +:9qyy0668=*+=>9yuuuupuuuuuuiuuuuuyyq2>O   ",
"       +*47907557>=+*<79qwwqwwqqwqqwqqwww996:$O   ",
"       X+#########@O+@#########@#+#########@+     ",
"     .$467776887788887778687776<=O*>7777661$      ",
"     @>0yuppuuupsfffppuuupuuuuy0>#:4wtyuiy0:.     ",
"     @<4wtyupuuupidfppyq988wuuw6>+$*260yuy8>O     ",
"     @:;tuyuuuuuuuiipyy3&@#2wuw;:@:=0uuuyt6>.     ",
"     #:40yuuyuuuuuuuuyq7*.#7te07>@:47tuyt7>*.     ",
"     O$$=;;;;;;;;:;::;=*$ @*;=**$.#*==;;=&$+.     ",
"       .@$********%.+&**# .&**************=*$O    ",
"      .@=9yyyiy081-@=8qyw+&yuadpuyuyyyyuyyyq7*+   ",
"       @7qtuuuie9**@=10y9O#qtagfauuuuuuuuyyq9>+   ",
"       +<9tyu0889**@=6ry7X+7tpppuuuuuuuuuuy0*:O   ",
"        &7qtt07682=@=qyq; .;7tuuuuuuiuuyyyyq5:.   ",
"       o$>770q007<>@&<6,@  @*7900w0000887777,$    ",
"      ..@@@@#@@@#@@O+@@@+O.+@#@##++########@+.    ",
"     .*,466444664644666646464442=+=4788087<$      ",
"     @>4tuuuutuuuupdfgfuuuuyuyt0<@=50wruyy0:      ",
"     @>4ettuupuuuuuppddauuuuuut5<+$$580yuy8>o     ",
"     +:;tyuuuuuuuuiuuuiiuuuyrr8**+:=0uuuuq5:.     ",
"     @=49yyyyuuyuiuyuuyyuuur861;*+>57rurq7;#.     ",
"      @$*===-*=-=*=====-*-==*-*$#.#&$--==&@       ",
"       .@*==----=*$.+**--===----====--*;====&+    ",
"       o:0yuiyyy07>#=9tuuuupaauuuuuuuuuuuyyt9*O   ",
"       @40yuyiyw51*+=7tiuuuaffauuuuuuuuuuyyq7:O   ",
"       O<0wyuuiyt1>#==7uuuuuaapuuuuuuuuuuuy0*:O   ",
"       O=7wyy8337=$O=>7yuuuuuuuuuuuuuuuuyyyq4>+   ",
"       O$>67765261=+$<577888888888888888777<*#.   ",
"      .+@#######@@#++###########@O@########+O.    ",
"     .*400000ww00wwwwwww000ww085:+:580q0084$      ",
"     +<0yyuuuuuuuuadfffauuuuuuy0>@*50wwuyy0:O     ",
"     @>2wyyuuuuuuuuuusdauuuuppw2>@$&570uuy7>O     ",
"     @>;ruyuuuuuuuuuuuiiuuuuww8**+::0uuuuq7:.     ",
"    .+=59ryyyyyuuuyyuuuyyyyr871=*+>47qyyq4>&.     ",
"      +$$**&**&*&***$**$****&*$@#.@$$&**&$#+      ",
"                                                  ",
"ooooooooooooooooo oo ooooo oooooooooooo oooooooooo"
};
